PathFileType	4	(X/Y/Z)	D:\TRACE\v60_Jaco2_6-2-23\BothDRS_Motion3_6-platform.trc
DataRate	CameraRate	NumFrames	NumMarkers	Units	OrigDataRate	OrigDataStartFrame	OrigNumFrames
100.00	100.00	      36	5	mm	100.00	4376	      7000
Frame#	Time	Left_Front			Right_Front			Left_Aft			Right_Aft			Post			
		X1	Y1	Z1	X2	Y2	Z2	X3	Y3	Z3	X4	Y4	Z4	X5	Y5	Z5	

4376	43.750	-756.27698	-31.30541	-659.20392	814.44702	-32.72235	-636.88580	-687.09808	39.14513	475.21286	727.07373	41.44238	578.09277	39.82494	1244.24414	-1052.45642	
4377	43.760	-756.30811	-30.63588	-659.19580	814.51062	-31.98198	-636.54187	-687.15100	38.67166	475.56177	727.06641	40.97202	578.34900	39.52093	1245.25037	-1051.22949	
4378	43.770	-756.21002	-30.08773	-659.04510	814.53918	-31.22836	-636.42883	-687.27161	38.26172	475.67896	727.27069	40.51158	578.45441	39.70115	1246.66309	-1049.47437	
4379	43.780	-756.52081	-29.13058	-658.70984	814.33533	-30.42224	-636.30933	-687.26709	37.64965	475.81314	727.13684	39.82093	578.85626	39.50546	1247.90540	-1048.07483	
4380	43.790	-756.92792	-27.98600	-658.61230	814.04803	-29.62476	-636.23029	-687.35638	37.04670	476.09592	726.82397	39.01390	578.99042	39.31857	1249.25879	-1046.42676	
4381	43.800	-757.14069	-27.17055	-658.56110	813.91052	-28.78225	-636.18756	-687.51483	36.53946	476.27548	726.79944	38.44237	579.24072	39.06583	1250.38293	-1044.82336	
4382	43.810	-757.14490	-26.72817	-658.26282	813.79541	-27.96860	-635.80310	-687.78021	35.92109	476.41956	726.51410	37.84666	579.46844	38.70176	1251.79993	-1043.16992	
4383	43.820	-757.34515	-25.67101	-657.74896	813.42712	-27.23786	-635.68005	-687.88489	35.35805	476.62891	726.25549	37.02554	579.79010	38.85875	1253.24048	-1041.19666	
4384	43.830	-757.30981	-25.12734	-657.30786	813.05664	-26.14510	-635.10168	-687.96399	34.62662	477.10913	726.15686	36.17345	579.83881	38.15581	1254.39490	-1039.23206	
4385	43.840	-757.48901	-23.95799	-657.57654	812.81812	-25.29650	-635.18921	-688.28857	34.15903	477.34177	725.89606	35.82506	580.18182	38.17662	1255.83582	-1037.17761	
4386	43.850	-757.65723	-23.07304	-657.35052	812.62341	-24.34441	-634.96442	-688.53839	33.91535	477.55301	725.59644	34.83720	579.83368	37.77816	1257.22180	-1035.25098	
4387	43.860	-757.89685	-22.32049	-657.54138	812.48328	-23.59981	-634.66827	-688.83490	33.31100	477.85062	725.58124	34.54544	580.21722	37.67862	1258.67480	-1032.92639	
4388	43.870	-758.17267	-21.50852	-657.46497	812.21484	-22.83727	-634.63599	-689.18701	32.40349	478.05090	725.05420	33.51949	580.72205	37.32892	1259.98523	-1030.90027	
4389	43.880	-758.58716	-20.30294	-657.13605	811.95300	-21.75515	-634.49933	-689.30994	31.96210	478.13300	725.05988	32.94923	581.45599	37.02408	1261.33679	-1028.53333	
4390	43.890	-759.16492	-19.50221	-656.97015	811.78760	-20.98708	-634.24939	-689.47766	31.28106	478.40521	724.83234	32.20473	581.25513	36.99101	1262.91406	-1026.21289	
4391	43.900	-759.40399	-18.65124	-656.71826	811.54340	-20.01724	-634.12378	-689.71326	30.73619	478.60028	724.58508	31.35568	581.48376	36.53562	1264.05249	-1024.33215	
4392	43.910	-759.37720	-17.51645	-656.54724	811.28955	-19.17106	-633.86499	-689.84491	30.16183	478.80930	724.36829	30.72898	581.77435	36.50885	1265.71936	-1022.27002	
4393	43.920	-759.64960	-16.74808	-656.44238	810.87531	-18.05330	-633.71814	-690.14349	29.28766	479.11182	724.01190	30.05387	581.96979	35.94193	1267.32104	-1020.45831	
4394	43.930	-759.86957	-15.63202	-656.30762	810.70074	-17.03374	-633.43756	-690.49701	28.61611	479.55762	723.70367	29.10089	582.41302	35.87242	1268.79041	-1018.55457	
4395	43.940	-759.71136	-14.51680	-655.65131	810.33307	-16.07997	-633.28247	-690.82977	27.97102	479.81610	723.40747	28.45372	582.55750	35.46677	1270.29883	-1016.70947	
4396	43.950	-760.29993	-13.82491	-655.55835	810.09021	-15.09752	-633.05859	-691.02271	27.04401	480.24448	723.00299	27.67457	582.81226	34.99053	1271.65527	-1015.15558	
4397	43.960	-760.89307	-12.91934	-655.53870	809.87598	-14.01917	-632.75854	-691.72137	27.15733	480.08185	722.72656	26.72970	583.15570	34.78459	1273.43652	-1013.06775	
4398	43.970	-761.46857	-11.46859	-655.54437	809.50592	-13.22750	-632.66669	-691.74524	26.46051	480.38593	722.55450	26.10784	583.45654	34.42492	1274.83496	-1011.19055	
4399	43.980	-761.76990	-10.67437	-655.45459	809.13379	-12.05032	-632.35974	-692.09863	25.55011	480.52432	722.06226	25.21014	583.68982	34.23180	1276.29797	-1009.13354	
4400	43.990	-761.91443	-9.76480	-655.05298	808.73187	-10.95772	-632.37189	-692.56909	24.66148	480.94427	721.87988	24.28914	584.03571	33.96096	1278.04016	-1007.07202	
4401	44.000	-762.12128	-8.80261	-654.50702	808.63843	-9.84430	-631.76794	-693.05487	24.48220	481.04340	721.32733	23.41805	584.13434	33.37120	1279.62817	-1004.66241	
4402	44.010	-762.44879	-7.55258	-654.39850	808.11597	-9.00744	-631.91968	-693.43896	23.72613	481.43265	720.99805	22.93051	584.45544	32.60341	1281.46350	-1002.49585	
4403	44.020	-762.82733	-6.48005	-654.37622	807.71869	-7.83096	-631.62750	-693.91522	22.81657	481.74258	720.57617	21.78278	584.76538	32.46983	1283.10498	-1000.16254	
4404	44.030	-763.31207	-5.48878	-653.78741	807.43091	-6.77063	-631.46893	-693.72644	22.11406	482.15903	720.36218	20.92253	585.03625	32.52403	1284.47156	-997.29932	
4405	44.040	-763.64355	-4.92330	-653.55652	807.00458	-5.84235	-631.22144	-694.32721	21.27552	482.32321	719.88879	20.21031	585.25739	32.13592	1286.07666	-994.71448	
4406	44.050	-764.03760	-3.24331	-653.68750	806.94104	-4.95628	-631.30981	-694.50195	20.82460	482.60477	719.54620	19.30048	585.50720	31.48214	1287.51501	-992.26978	
4407	44.060	-764.33740	-2.26355	-653.61340	806.22607	-3.82140	-630.78723	-695.13385	19.88660	482.99728	719.04523	18.54357	585.90045	31.14649	1289.17908	-989.51154	
4408	44.070	-764.55444	-1.57832	-653.49701	805.84656	-2.74850	-630.60480	-695.63696	19.41368	482.93353	718.68127	17.66124	585.93835	30.70564	1290.72461	-987.40302	
4409	44.080	-764.78925	-0.47873	-652.82397	805.45667	-1.69483	-630.29364	-696.08203	18.82318	483.06488	718.44257	16.81686	586.35144	30.18765	1292.11426	-985.08893	
4410	44.090	-765.98480	1.10442	-652.42584	805.00104	-0.69062	-629.97089	-696.52423	18.12065	483.54266	718.18158	16.04594	586.47595	29.72314	1293.75220	-983.05328	
4411	44.100	-766.04456	1.65377	-652.43396	804.81195	0.33587	-629.78882	-696.69836	17.55800	483.73334	717.69055	15.01042	586.79663	29.48904	1295.33984	-981.00183	
